<?xml version="1.0" encoding="utf-8"?>
<!-- Generator: Adobe Illustrator 29.8.3, SVG Export Plug-In . SVG Version: 9.03 Build 0)  -->
<svg version="1.1"
	 id="svg8" xmlns:svg="http://www.w3.org/2000/svg" xmlns:inkscape="http://www.inkscape.org/namespaces/inkscape" xmlns:rdf="http://www.w3.org/1999/02/22-rdf-syntax-ns#" xmlns:cc="http://creativecommons.org/ns#" xmlns:sodipodi="http://sodipodi.sourceforge.net/DTD/sodipodi-0.dtd" xmlns:dc="http://purl.org/dc/elements/1.1/"
	 xmlns="http://www.w3.org/2000/svg" xmlns:xlink="http://www.w3.org/1999/xlink" x="0px" y="0px" viewBox="0 0 248.4 247"
	 style="enable-background:new 0 0 248.4 247;" xml:space="preserve">
<defs>
<style type="text/css">
	.pitch_st0{ fill-rule: evenodd;
        stroke: url(#linear-gradient);
        stroke-miterlimit: 6.2;
        stroke-width: 2px;}
	.pitch_st1{clip-path:url(#SVGID_00000044177708356505530060000001441812081550896045_);}
	.pitch_st2{fill-rule:evenodd;clip-rule:evenodd;fill:#734021;}
	.pitch_st3{fill-rule:evenodd;clip-rule:evenodd;fill:#3F9DD1;stroke:#000000;stroke-width:0.2;stroke-miterlimit:11.3;}
	.pitch_st4{display:none;fill:#3F9DD1;}
	.pitch_st5{display:none;fill-rule:evenodd;clip-rule:evenodd;fill:#995A27;}
	.pitch_st6{fill:#FFFFFF;}
	.pitch_st7{fill-rule:evenodd;clip-rule:evenodd;fill:#E84E12;}
	.pitch_st8{fill:none;stroke:#231F20;stroke-width:10;stroke-miterlimit:11.3;}
	.pitch_st9{opacity:0.7;}
	.pitch_st10{fill:none;stroke:#FFFFFF;stroke-width:3.4;stroke-miterlimit:3;}
	.pitch_st11{fill-rule:evenodd;clip-rule:evenodd;fill:#FFFFFF;}
	.pitch_st12{display:none;fill:none;stroke:#000000;stroke-width:0.2;stroke-miterlimit:11.3;}
	.pitch_st13{fill-rule:evenodd;clip-rule:evenodd;fill:#282725;stroke:#000000;stroke-width:0.2;stroke-miterlimit:11.3;}
	.pitch_st14{fill-rule:evenodd;clip-rule:evenodd;fill:#333333;stroke:#000000;stroke-width:0.2;stroke-miterlimit:11.3;}
	.pitch_st15{fill-rule:evenodd;clip-rule:evenodd;fill:#1A1A1A;}
	
		.pitch_st16{fill-rule:evenodd;clip-rule:evenodd;fill:url(#rect1229_00000140728955256446771750000016905676216459746180_);stroke:#000000;stroke-width:0.2;stroke-miterlimit:11.3;}
	.pitch_st17{fill:#E84E12;}
	.pitch_st18{fill-rule:evenodd;clip-rule:evenodd;fill:#282725;}
	.pitch_st19{fill:none;stroke:#000000;stroke-width:0.2;stroke-miterlimit:11.3;}
	.pitch_st20{fill:url(#path1259_00000021838557709765504820000004390939295585283995_);}
	.pitch_st21{fill:#1A1A1A;stroke:#666666;stroke-width:0.2;stroke-miterlimit:6.2;}
	.pitch_st22{fill-rule:evenodd;clip-rule:evenodd;stroke:#666666;stroke-width:0.1;stroke-miterlimit:6.2;}
	.pitch_st23{display:none;}
	.pitch_st24{display:inline;fill:url(#circle2789_00000083052530955838696530000000765191727923264133_);}
	.pitch_st25{display:inline;opacity:0.5;enable-background:new    ;}
	.pitch_st26{fill-rule:evenodd;clip-rule:evenodd;fill:#F9F9F9;}
</style>

	 <linearGradient id="linear-gradient" x1="18.4" y1="231.4" x2="230.7" y2="19" gradientTransform="translate(0 248) scale(1 -1)" gradientUnits="userSpaceOnUse">
      <stop offset="0" stop-color="#686868"/>
      <stop offset="1" stop-color="#000"/>
    </linearGradient>
	
</defs>

<path id="bezel" class="pitch_st0" d="M16,21.3c.9-2.1,3.8-4.9,6.6-5.9L62.3,0h122.8l42.7,15.2c2.6,1.1,4.4,3.6,5.4,6.3l13.5,40v122.6l-14.3,40.7c-2,3.5-3,4.3-6.8,6.3,0,0-21.8,11.5-40.5,14.3H62.4c-12.9.3-39.9-13.8-39.9-13.8-2.6-1.3-5.5-4.9-6.4-7.6,0,0-15.1-31.1-15.1-39.9V61.6l15.1-40.3h0,0Z" inkscape:connector-curvature="0" sodipodi:nodetypes="ccccccccccccccccc"/>
<g>
	<defs>
		<circle id="SVGID_1_" cx="125" cy="123.9" r="109.5"/>
	</defs>
	<clipPath id="SVGID_00000116197087603358000660000008888779206875632007_">
		<use xlink:href="#SVGID_1_"  style="overflow:visible;"/>
	</clipPath>
	<g style="clip-path:url(#SVGID_00000116197087603358000660000008888779206875632007_);">
		<g id="indicator">
			<path id="rect1930" inkscape:connector-curvature="0" class="pitch_st2" d="M-0.7,124.6v123.9h249.8V124.6H-0.7z"/>
			<path id="rect19301" inkscape:connector-curvature="0" class="pitch_st3" d="M-0.7-40.3v164.9h249.8V-40.3H-0.7z"/>
			<circle id="circle1465" class="pitch_st4" cx="125" cy="124" r="77.5"/>
			<path id="path1571" inkscape:connector-curvature="0" class="pitch_st5" d="M47.4,124.6c0,1.6,0,3.2,0.2,4.9c0.2,2.6,0.5,5.1,0.9,7.7
				c0.4,2.5,1,5.1,1.7,7.6s1.5,4.9,2.4,7.4c0.9,2.4,2,4.8,3.2,7.1s2.5,4.5,3.9,6.7s2.9,4.3,4.5,6.3c1.6,2,3.3,4,5.1,5.8
				c1.8,1.9,3.7,3.6,5.7,5.3s4,3.2,6.2,4.7c2.1,1.5,4.3,2.8,6.6,4.1c2.3,1.2,4.6,2.4,7,3.4s4.8,1.9,7.3,2.7s5,1.4,7.5,1.9
				s5.1,0.9,7.7,1.2s5.2,0.4,7.7,0.4s3.7,0,5.5-0.2c2.6-0.2,5.1-0.5,7.7-0.9c2.5-0.4,5.1-1,7.6-1.7s4.9-1.5,7.4-2.4
				c2.4-0.9,4.8-2,7.1-3.2s4.5-2.5,6.7-3.9s4.3-2.9,6.3-4.5s4-3.3,5.8-5.1s3.6-3.7,5.3-5.7s3.2-4,4.7-6.2c1.5-2.1,2.8-4.3,4.1-6.6
				c1.2-2.3,2.4-4.6,3.4-7s1.9-4.8,2.7-7.3s1.4-5,1.9-7.5s0.9-5.1,1.2-7.7c0.2-2.4,0.3-4.7,0.4-7.1H47.4V124.6L47.4,124.6z"/>
			<g id="text1471">
				<path id="path1697" inkscape:connector-curvature="0" class="pitch_st6" d="M82.1,89.6v0.8h-4.5v-0.6c0-0.3,0.3-0.6,0.5-0.9
					c0.3-0.3,0.6-0.6,1.1-1c0.7-0.6,1.2-1.1,1.5-1.4c0.3-0.4,0.4-0.7,0.4-1s0-0.6-0.4-0.8c-0.2-0.2-0.5-0.3-0.9-0.3s-0.7,0-1,0.4
					s-0.4,0.6-0.4,1h-0.9c0-0.7,0.3-1.2,0.7-1.5c0.4-0.3,0.9-0.5,1.5-0.5s1.2,0.2,1.5,0.5s0.6,0.8,0.6,1.3s0,0.5-0.2,0.8
					c0,0.3-0.3,0.5-0.6,0.8c-0.3,0.3-0.7,0.7-1.3,1.2c-0.5,0.4-0.8,0.7-1,0.9l-0.4,0.4h3.8L82.1,89.6z"/>
				<path id="path1699" inkscape:connector-curvature="0" class="pitch_st6" d="M83,87c0-0.8,0-1.4,0.2-1.9s0.4-0.9,0.7-1.1
					c0.3-0.3,0.7-0.4,1.2-0.4s0.7,0,1,0.2c0.3,0,0.5,0.4,0.7,0.6c0.2,0.3,0.3,0.6,0.4,1s0.2,0.9,0.2,1.6s0,1.4-0.2,1.9
					s-0.4,0.9-0.7,1.1c-0.3,0.3-0.7,0.4-1.2,0.4s-1.2-0.2-1.5-0.7C83.4,89.1,83.1,88.2,83,87L83,87L83,87z M83.8,87
					c0,1.1,0,1.8,0.4,2.2c0.3,0.4,0.6,0.5,1,0.5s0.7-0.2,1-0.6s0.4-1.1,0.4-2.2s0-1.9-0.4-2.2c-0.3-0.4-0.6-0.5-1-0.5
					s-0.7,0.2-0.9,0.5C84,85.1,83.9,85.9,83.8,87L83.8,87L83.8,87z"/>
			</g>
			<g id="text1475">
				<path id="path1702" inkscape:connector-curvature="0" class="pitch_st6" d="M168.9,89.6v0.8h-4.5v-0.6c0.1-0.3,0.3-0.6,0.5-0.9
					c0.3-0.3,0.6-0.6,1.1-1c0.7-0.6,1.2-1.1,1.5-1.4c0.3-0.4,0.4-0.7,0.4-1s-0.1-0.6-0.4-0.8c-0.2-0.2-0.5-0.3-0.9-0.3s-0.7,0-1,0.4
					s-0.4,0.6-0.4,1h-0.9c0-0.7,0.3-1.2,0.7-1.5s0.9-0.5,1.5-0.5s1.2,0.2,1.5,0.5c0.4,0.4,0.6,0.8,0.6,1.3s0,0.5-0.2,0.8
					s-0.3,0.5-0.6,0.8s-0.7,0.7-1.3,1.2c-0.5,0.4-0.8,0.7-1,0.9c-0.1,0-0.3,0.3-0.4,0.4h3.8L168.9,89.6z"/>
				<path id="path1704" inkscape:connector-curvature="0" class="pitch_st6" d="M169.8,87c0-0.8,0-1.4,0.2-1.9s0.4-0.9,0.7-1.1
					c0.3-0.3,0.7-0.4,1.2-0.4s0.7,0,1,0.2c0.3,0,0.5,0.4,0.7,0.6c0.2,0.3,0.3,0.6,0.4,1c0.1,0.4,0.2,0.9,0.2,1.6s0,1.4-0.2,1.9
					s-0.4,0.9-0.7,1.1c-0.3,0.3-0.7,0.4-1.2,0.4s-1.2-0.2-1.5-0.7C170.2,89.1,169.9,88.2,169.8,87L169.8,87L169.8,87z M170.7,87
					c0,1.1,0.1,1.8,0.4,2.2c0.3,0.4,0.6,0.5,1,0.5s0.7-0.2,1-0.6s0.4-1.1,0.4-2.2s-0.1-1.9-0.4-2.2c-0.3-0.4-0.6-0.5-1-0.5
					s-0.7,0.2-0.9,0.5c-0.3,0.4-0.4,1.2-0.4,2.3C170.8,87,170.7,87,170.7,87z"/>
			</g>
			<g id="text1481">
				<path id="path1687" inkscape:connector-curvature="0" class="pitch_st6" d="M88.9,100.6h1.6v6.9h-1.1v-5.9h-0.5V100.6L88.9,100.6
					L88.9,100.6z"/>
				<path id="path1689" inkscape:connector-curvature="0" class="pitch_st6" d="M91.5,104.2c0-0.8,0-1.4,0.2-1.9s0.4-0.9,0.7-1.1
					c0.3-0.3,0.7-0.4,1.2-0.4s0.7,0,1,0.2c0.3,0,0.5,0.4,0.7,0.6c0.2,0.3,0.3,0.6,0.4,1s0.2,0.9,0.2,1.6s0,1.4-0.2,1.9
					s-0.4,0.9-0.7,1.1c-0.3,0.3-0.7,0.4-1.2,0.4s-1.2-0.2-1.5-0.7C91.9,106.3,91.6,105.4,91.5,104.2L91.5,104.2L91.5,104.2z
					 M92.4,104.2c0,1.1,0,1.8,0.4,2.2c0.3,0.4,0.6,0.5,1,0.5s0.7-0.2,1-0.6s0.4-1.1,0.4-2.2s0-1.9-0.4-2.2c-0.3-0.4-0.6-0.5-1-0.5
					s-0.7,0.2-0.9,0.5C92.6,102.3,92.5,103.1,92.4,104.2L92.4,104.2L92.4,104.2z"/>
			</g>
			<g id="text1487">
				<path id="path1692" inkscape:connector-curvature="0" class="pitch_st6" d="M157,100.6h1.6v6.9h-1.1v-5.9H157V100.6L157,100.6
					L157,100.6z"/>
				<path id="path1694" inkscape:connector-curvature="0" class="pitch_st6" d="M159.6,104.2c0-0.8,0-1.4,0.2-1.9s0.4-0.9,0.7-1.1
					c0.3-0.3,0.7-0.4,1.2-0.4s0.7,0,1,0.2c0.3,0,0.5,0.4,0.7,0.6c0.2,0.3,0.3,0.6,0.4,1c0.1,0.4,0.2,0.9,0.2,1.6s0,1.4-0.2,1.9
					s-0.4,0.9-0.7,1.1c-0.3,0.3-0.7,0.4-1.2,0.4s-1.2-0.2-1.5-0.7C160,106.3,159.7,105.4,159.6,104.2L159.6,104.2L159.6,104.2z
					 M160.5,104.2c0,1.1,0.1,1.8,0.4,2.2c0.3,0.4,0.6,0.5,1,0.5s0.7-0.2,1-0.6s0.4-1.1,0.4-2.2s-0.1-1.9-0.4-2.2
					c-0.3-0.4-0.6-0.5-1-0.5s-0.7,0.2-0.9,0.5c-0.3,0.4-0.4,1.2-0.4,2.3C160.6,104.2,160.5,104.2,160.5,104.2z"/>
			</g>
			<g id="text1493">
				<path id="path1684" inkscape:connector-curvature="0" class="pitch_st6" d="M91.1,147c0-0.8,0-1.4,0.2-1.9s0.4-0.9,0.7-1.1
					c0.3-0.3,0.7-0.4,1.2-0.4s0.7,0,1,0.2c0.3,0.1,0.5,0.4,0.7,0.6c0.2,0.3,0.3,0.6,0.4,1s0.2,0.9,0.2,1.6s0,1.4-0.2,1.9
					s-0.4,0.9-0.7,1.1c-0.3,0.3-0.7,0.4-1.2,0.4s-1.2-0.2-1.5-0.7C91.5,149.1,91.2,148.2,91.1,147L91.1,147L91.1,147z M92,147
					c0,1.1,0,1.8,0.4,2.2s0.6,0.5,1,0.5s0.7-0.2,1-0.6c0.3-0.4,0.4-1.1,0.4-2.2s0-1.9-0.4-2.2c-0.3-0.4-0.6-0.5-1-0.5
					s-0.7,0.2-0.9,0.5C92.2,145.1,92.1,145.9,92,147L92,147L92,147z"/>
				<path id="path1682" inkscape:connector-curvature="0" class="pitch_st6" d="M88.5,143.4h1.6v6.9H89v-5.9h-0.5v-1.1l0,0V143.4z"/>
			</g>
			<g id="text1499">
				<path id="path1677" inkscape:connector-curvature="0" class="pitch_st6" d="M157.3,143.4h1.6v6.9h-1.1v-5.9h-0.5v-1.1l0,0V143.4z"/>
				<path id="path1679" inkscape:connector-curvature="0" class="pitch_st6" d="M159.9,147c0-0.8,0-1.4,0.2-1.9s0.4-0.9,0.7-1.1
					c0.3-0.3,0.7-0.4,1.2-0.4s0.7,0,1,0.2c0.3,0.1,0.5,0.4,0.7,0.6c0.2,0.3,0.3,0.6,0.4,1c0.1,0.4,0.2,0.9,0.2,1.6s0,1.4-0.2,1.9
					s-0.4,0.9-0.7,1.1c-0.3,0.3-0.7,0.4-1.2,0.4s-1.2-0.2-1.5-0.7C160.3,149.1,160,148.2,159.9,147L159.9,147L159.9,147z M160.7,147
					c0,1.1,0.1,1.8,0.4,2.2c0.3,0.4,0.6,0.5,1,0.5s0.7-0.2,1-0.6c0.3-0.4,0.4-1.1,0.4-2.2s-0.1-1.9-0.4-2.2c-0.3-0.4-0.6-0.5-1-0.5
					s-0.7,0.2-0.9,0.5c-0.3,0.4-0.4,1.2-0.4,2.3H160.7z"/>
			</g>
			<g id="text1503">
				<path id="path1672" inkscape:connector-curvature="0" class="pitch_st6" d="M82.3,166.6v0.8h-4.5v-0.6c0-0.3,0.3-0.6,0.5-0.9
					c0.3-0.3,0.6-0.6,1.1-1c0.7-0.6,1.2-1.1,1.5-1.4c0.3-0.4,0.4-0.7,0.4-1s0-0.6-0.4-0.8c-0.2-0.2-0.5-0.3-0.9-0.3s-0.7,0.1-1,0.4
					c-0.2,0.2-0.4,0.6-0.4,1h-0.9c0-0.7,0.3-1.2,0.7-1.5c0.4-0.3,0.9-0.5,1.5-0.5s1.2,0.2,1.5,0.5c0.4,0.4,0.6,0.8,0.6,1.3
					s0,0.5-0.2,0.8s-0.3,0.5-0.6,0.8c-0.3,0.3-0.7,0.7-1.3,1.2c-0.5,0.4-0.8,0.7-1,0.9c0,0.1-0.3,0.3-0.4,0.4L82.3,166.6L82.3,166.6
					z"/>
				<path id="path1674" inkscape:connector-curvature="0" class="pitch_st6" d="M83.2,164.1c0-0.8,0-1.4,0.2-1.9s0.4-0.9,0.7-1.1
					c0.3-0.3,0.7-0.4,1.2-0.4s0.7,0,1,0.2c0.3,0.1,0.5,0.4,0.7,0.6c0.2,0.3,0.3,0.6,0.4,1s0.2,0.9,0.2,1.6s0,1.4-0.2,1.9
					s-0.4,0.9-0.7,1.1c-0.3,0.3-0.7,0.4-1.2,0.4s-1.2-0.2-1.5-0.7C83.6,166.2,83.3,165.3,83.2,164.1L83.2,164.1L83.2,164.1z
					 M84,164.1c0,1.1,0,1.8,0.4,2.2s0.6,0.5,1,0.5s0.7-0.2,1-0.6c0.3-0.4,0.4-1.1,0.4-2.2s0-1.9-0.4-2.2c-0.3-0.4-0.6-0.5-1-0.5
					s-0.7,0.2-0.9,0.5C84.2,162.2,84.1,163,84,164.1L84,164.1L84,164.1z"/>
			</g>
			<g id="text1507">
				<path id="path1667" inkscape:connector-curvature="0" class="pitch_st6" d="M168.8,166.6v0.8h-4.5v-0.6c0.1-0.3,0.3-0.6,0.5-0.9
					c0.3-0.3,0.6-0.6,1.1-1c0.7-0.6,1.2-1.1,1.5-1.4c0.3-0.4,0.4-0.7,0.4-1s-0.1-0.6-0.4-0.8c-0.2-0.2-0.5-0.3-0.9-0.3
					s-0.7,0.1-1,0.4c-0.2,0.2-0.4,0.6-0.4,1h-0.9c0-0.7,0.3-1.2,0.7-1.5s0.9-0.5,1.5-0.5s1.2,0.2,1.5,0.5s0.6,0.8,0.6,1.3
					s0,0.5-0.2,0.8s-0.3,0.5-0.6,0.8s-0.7,0.7-1.3,1.2c-0.5,0.4-0.8,0.7-1,0.9l-0.4,0.4L168.8,166.6L168.8,166.6z"/>
				<path id="path1669" inkscape:connector-curvature="0" class="pitch_st6" d="M169.7,164.1c0-0.8,0-1.4,0.2-1.9s0.4-0.9,0.7-1.1
					c0.3-0.3,0.7-0.4,1.2-0.4s0.7,0,1,0.2c0.3,0.1,0.5,0.4,0.7,0.6c0.2,0.3,0.3,0.6,0.4,1c0.1,0.4,0.2,0.9,0.2,1.6s0,1.4-0.2,1.9
					s-0.4,0.9-0.7,1.1c-0.3,0.3-0.7,0.4-1.2,0.4s-1.2-0.2-1.5-0.7C170.1,166.2,169.8,165.3,169.7,164.1L169.7,164.1L169.7,164.1z
					 M170.5,164.1c0,1.1,0.1,1.8,0.4,2.2c0.3,0.4,0.6,0.5,1,0.5s0.7-0.2,1-0.6c0.3-0.4,0.4-1.1,0.4-2.2s-0.1-1.9-0.4-2.2
					c-0.3-0.4-0.6-0.5-1-0.5s-0.7,0.2-0.9,0.5c-0.3,0.4-0.4,1.2-0.4,2.3H170.5z"/>
			</g>
			<rect id="rect1509" x="92.2" y="164.1" class="pitch_st6" width="66.7" height="1.2"/>
			<rect id="rect1511" x="106.2" y="155.4" class="pitch_st6" width="38.6" height="1.3"/>
			<rect id="rect1513" x="100.9" y="146.8" class="pitch_st6" width="49.2" height="1.2"/>
			<rect id="rect1515" x="110.1" y="138.4" class="pitch_st6" width="30.8" height="1.3"/>
			<rect id="rect1517" x="110.7" y="112.6" class="pitch_st6" width="29.5" height="1.3"/>
			<rect id="rect1519" x="101.4" y="104.2" class="pitch_st6" width="48.1" height="1.2"/>
			<rect id="rect1521" x="105.6" y="95.4" class="pitch_st6" width="39.7" height="1.3"/>
			<rect id="rect1523" x="93" y="86.7" class="pitch_st6" width="65" height="1.2"/>
			<rect id="rect1525" x="106.4" y="77.9" class="pitch_st6" width="38.2" height="1.3"/>
			<rect id="rect1527" x="47.8" y="124.4" class="pitch_st6" width="154.3" height="3.3"/>
			<path id="path1531" inkscape:connector-curvature="0" class="pitch_st7" d="M126.3,35.1l-8.2,23h16.3L126.3,35.1L126.3,35.1L126.3,35.1
				z M126.3,45.9l2.8,7.9h-5.6C123.5,53.8,126.3,45.9,126.3,45.9z"/>
		</g>
	</g>
</g>
<g id="screwsandglass">
	<circle id="shadow" class="pitch_st8" cx="125" cy="123.9" r="109.5"/>
	<g id="markings" class="pitch_st9">
		<g id="g2090">
			<path id="path2021" inkscape:connector-curvature="0" class="pitch_st10" d="M125,127.6l53.8,53.2"/>
			<path id="path2038" inkscape:connector-curvature="0" class="pitch_st10" d="M125,127.6l-53.8,53.2"/>
		</g>
		<path id="path2093" inkscape:connector-curvature="0" class="pitch_st10" d="M125,127.6l67.1,36.2"/>
		<path id="path2095" inkscape:connector-curvature="0" class="pitch_st10" d="M125,127.6l-67.1,36.2"/>
		<path id="path1885" inkscape:connector-curvature="0" class="pitch_st11" d="M194.9,90.6l24.2-13l-1.5-2.8l-24.2,12.9
			c0.2,0.4,0.4,0.7,0.6,1.1C194.3,89.4,194.5,90,194.9,90.6L194.9,90.6L194.9,90.6z"/>
		<path id="path1887" inkscape:connector-curvature="0" class="pitch_st11" d="M57.3,86.2L34.1,73.3l-1.6,2.8l23.3,13
			c0.4-0.8,0.7-1.5,1.1-2.3C56.9,86.6,57.1,86.4,57.3,86.2L57.3,86.2z"/>
		<path id="path1889" inkscape:connector-curvature="0" class="pitch_st11" d="M73.2,34.4L70.5,36l13.2,22.4c0.9-0.5,1.8-1.1,2.8-1.6
			L73.2,34.4z"/>
		<path id="path1891" inkscape:connector-curvature="0" class="pitch_st11" d="M95.2,32.4l-3,1l6.1,17.8c1-0.4,2-0.7,3-1L95.2,32.4z"/>
		<path id="path1893" inkscape:connector-curvature="0" class="pitch_st11" d="M110.9,28.7l-3.2,0.5l3.1,18.5c0.3,0,0.7-0.2,1-0.2
			c0.7,0,1.4-0.2,2.1-0.3l-3.1-18.6l0,0L110.9,28.7z"/>
		<path id="path1895" inkscape:connector-curvature="0" class="pitch_st11" d="M141.6,29l-3.4,18.6c0.8,0,1.5,0.2,2.3,0.3
			c0.3,0,0.6,0,0.9,0.2l3.4-18.6l-3.2-0.6l0,0V29z"/>
		<path id="path1897" inkscape:connector-curvature="0" class="pitch_st11" d="M158.9,33.6l-6.8,17.9c1,0.3,2,0.7,3,1.1l6.8-17.9
			L158.9,33.6z"/>
		<path id="path1899" inkscape:connector-curvature="0" class="pitch_st11" d="M179.1,35.1l-13.8,22.6c0.9,0.5,1.8,1.1,2.7,1.7l13.8-22.6
			C181.8,36.8,179.1,35.1,179.1,35.1z"/>
		<circle id="circle1957" class="pitch_st12" cx="125" cy="123.9" r="109.5"/>
		
			<path id="path1920" inkscape:flatsided="true" inkscape:randomized="0" inkscape:rounded="2.42861e-017" inkscape:transform-center-x="-1.5265411e-006" inkscape:transform-center-y="1.9434793" sodipodi:arg1="1.5707963" sodipodi:arg2="2.6179939" sodipodi:cx="151.51556" sodipodi:cy="-40.754833" sodipodi:r1="14.082661" sodipodi:r2="7.0413308" sodipodi:sides="3" sodipodi:type="pitch_star" class="pitch_st11" d="
			M126.3,48.5l-8.2-33.1h16.3L126.3,48.5L126.3,48.5L126.3,48.5z"/>
		<path id="path1881" inkscape:connector-curvature="0" class="pitch_st11" d="M202.4,127.6h27.1v-3.2h-26.9
			C202.6,125.5,202.6,126.5,202.4,127.6L202.4,127.6L202.4,127.6z"/>
		<path id="path1883" inkscape:connector-curvature="0" class="pitch_st11" d="M47.4,124.4H20.2v3.2h27.3
			C47.5,126.5,47.5,125.5,47.4,124.4L47.4,124.4L47.4,124.4z"/>
	</g>
	<g id="device">
		<path id="path1263" inkscape:connector-curvature="0" class="pitch_st13" d="M122.1,127.7v17.9h-2.3v12.9h-7.7l-16.3,23.2H32.2
			c0.3,0.5,0.5,0.9,0.8,1.4c2,3.1,4.1,6,6.4,8.9c2.3,2.9,4.7,5.6,7.2,8.2c2.5,2.6,5.2,5.1,8,7.5s5.7,4.6,8.7,6.6
			c3,2.1,6.1,4,9.3,5.7s6.5,3.3,9.9,4.8c3.4,1.4,6.8,2.7,10.3,3.8s7,2,10.6,2.7s7.2,1.3,10.8,1.6c3.6,0.4,7.3,0.5,10.9,0.5
			s5.2,0,7.7-0.3c3.6-0.3,7.3-0.7,10.9-1.3c3.6-0.6,7.2-1.4,10.7-2.4s7-2.1,10.4-3.5c3.4-1.3,6.7-2.8,10-4.5s6.4-3.5,9.5-5.4
			c3.1-2,6-4.1,8.9-6.4c2.9-2.3,5.6-4.7,8.2-7.2c2.6-2.5,5.1-5.2,7.5-8s4.6-5.7,6.6-8.7c0.9-1.3,1.7-2.7,2.5-4.1h-63.5l-16.1-23.2
			h-7.8v-12.9h-2.5v-17.9L122.1,127.7L122.1,127.7z"/>
		<path id="rect2052" inkscape:connector-curvature="0" class="pitch_st14" d="M69.7,190c-5.1,0.4-9.3,5.6-8.5,10.7
			c0.6,5.6,5.2,10.3,10.6,11.6c2,0.4,4,0.4,6,0.7c17.1,1.9,34.2,3.8,51.4,3.4c14.1-0.3,28.1-1.8,42-3.4c2.7-0.4,5.5-0.6,8.1-1.2
			c5.1-1.8,9.1-6.9,9-12.5c0-3.9-2.9-7.4-6.5-8.6c-2.3-0.9-4.9-0.5-7.2-0.2c-14.7,2.1-29.5,4.5-44.4,5c-8.7,0.4-17.5,0-26.2-1
			c-9.5-1-19-2.6-28.5-3.9c-1.8-0.2-3.7-0.5-5.5-0.6H69.7L69.7,190z"/>
		<path id="path1227" inkscape:connector-curvature="0" sodipodi:nodetypes="cccccccccccc" class="pitch_st15" d="M73.6,198.8L73,211.1
			c8.3,10.5,29.8,16.1,30.9,16.1s4,0,5.5-2.9c2.5-5.3,14.5-8.9,18-9.8c3.5,0.9,15.6,4.5,18,9.8c1.5,2.9,4.2,2.9,5.5,2.9
			s19.7-5.6,28-16.1l2.3-12.3H73.6L73.6,198.8L73.6,198.8z"/>
		
			<linearGradient id="rect1229_00000088101380703678378090000010681904841001683881_" gradientUnits="userSpaceOnUse" x1="-69.4062" y1="564.9" x2="-69.4062" y2="554.1" gradientTransform="matrix(1.6 0 0 -1.6 238.3 1072.4)">
			<stop  offset="0" style="pitch_stop-color:#4D4D4D"/>
			<stop  offset="0.2" style="pitch_stop-color:#B3B3B3"/>
			<stop  offset="0.6" style="pitch_stop-color:#808080"/>
			<stop  offset="0.9" style="pitch_stop-color:#CCCCCC"/>
			<stop  offset="1" style="pitch_stop-color:#666666"/>
		</linearGradient>
		
			<path id="rect1229" inkscape:connector-curvature="0" sodipodi:nodetypes="ccccc" style="fill-rule:evenodd;clip-rule:evenodd;fill:url(#rect1229_00000088101380703678378090000010681904841001683881_);stroke:#000000;stroke-width:0.2;stroke-miterlimit:11.3;" d="
			M96.2,194.9c10.9,3.8,53.5,2,62,0l0.6,17.7c-16.1,1.8-51,1.9-63.1,0C95.7,212.6,96.2,194.9,96.2,194.9z"/>
		<circle id="circle1811" class="pitch_st17" cx="125" cy="126.5" r="4.7"/>
		<path id="path1275" inkscape:connector-curvature="0" class="pitch_st7" d="M75.1,122.6c-1.6,0-2.8,1.2-2.8,2.7s1.3,2.7,2.8,2.7h27.1
			c1.4,11.3,11,20.1,22.7,20.1s21.4-8.8,22.7-20.1h27.7c1.6,0,2.9-1.2,2.9-2.7s-1.3-2.7-2.9-2.7h-29.8c-1.6,0-2.9,1.2-2.9,2.7
			s0,0.2,0,0.3v1.4c0,0.6-0.1,1.2-0.3,1.8c-0.1,0.6-0.3,1.2-0.4,1.7c-0.2,0.6-0.4,1.1-0.6,1.7c-0.2,0.5-0.5,1.1-0.8,1.6
			s-0.6,1-0.9,1.5c-0.3,0.5-0.7,1-1.1,1.4c-0.4,0.5-0.8,0.9-1.2,1.3c-0.4,0.4-0.9,0.8-1.3,1.2c-0.5,0.4-0.9,0.7-1.4,1
			s-1,0.6-1.5,0.9c-0.5,0.3-1.1,0.5-1.6,0.7c-0.6,0.2-1.1,0.4-1.7,0.6c-0.6,0.2-1.2,0.3-1.7,0.4c-0.6,0.1-1.2,0.2-1.8,0.2h-3.1
			c-0.6,0-1.2-0.1-1.8-0.3c-0.6-0.1-1.2-0.3-1.7-0.4c-0.6-0.2-1.1-0.4-1.7-0.6c-0.5-0.2-1.1-0.5-1.6-0.8s-1-0.6-1.5-0.9
			c-0.5-0.3-1-0.7-1.4-1.1c-0.5-0.4-0.9-0.8-1.3-1.2s-0.8-0.9-1.2-1.3c-0.4-0.5-0.7-0.9-1-1.4s-0.6-1-0.9-1.5s-0.5-1.1-0.7-1.6
			c-0.2-0.6-0.4-1.1-0.6-1.7c-0.2-0.6-0.3-1.2-0.4-1.7c0-0.6-0.2-1.2-0.2-1.8v-1.2c0-1.5-1.2-2.7-2.7-2.7H75.3
			C75.3,122.8,75.1,122.6,75.1,122.6z"/>
		<path id="path1313" inkscape:connector-curvature="0" class="pitch_st18" d="M108.4,131.9l-4.8,1.5c3.3,8.7,11.6,14.9,21.4,14.9
			s18.1-6.2,21.4-14.9l-4.8-1.5c0,0.2-0.1,0.3-0.2,0.5c-0.2,0.5-0.5,1.1-0.8,1.6s-0.6,1-0.9,1.5c-0.3,0.5-0.7,1-1.1,1.4
			c-0.4,0.5-0.8,0.9-1.2,1.3c-0.4,0.4-0.9,0.8-1.3,1.2c-0.5,0.4-0.9,0.7-1.4,1s-1,0.6-1.5,0.9c-0.5,0.3-1.1,0.5-1.6,0.7
			c-0.6,0.2-1.1,0.4-1.7,0.6c-0.6,0.2-1.2,0.3-1.7,0.4c-0.6,0.1-1.2,0.2-1.8,0.2h-3.1c-0.6,0-1.2-0.1-1.8-0.3
			c-0.6-0.1-1.2-0.3-1.7-0.4c-0.6-0.2-1.1-0.4-1.7-0.6c-0.5-0.2-1.1-0.5-1.6-0.8s-1-0.6-1.5-0.9c-0.5-0.3-1-0.7-1.4-1.1
			c-0.5-0.4-0.9-0.8-1.3-1.2s-0.8-0.9-1.2-1.3c-0.4-0.5-0.7-0.9-1-1.4s-0.6-1-0.9-1.5s-0.5-1-0.7-1.6l0,0L108.4,131.9L108.4,131.9z"
			/>
		<path id="path1255" inkscape:connector-curvature="0" class="pitch_st19" d="M120.8,197.2V214"/>
		<path id="path1257" inkscape:connector-curvature="0" class="pitch_st19" d="M135.9,196.9v17"/>
		
			<radialGradient id="path1259_00000147215891391162253350000002772521551234803130_" cx="19.3419" cy="396.9719" r="2.4" gradientTransform="matrix(2.5699 2.2261 1.8987 -2.192 -684.9672 1036.4722)" gradientUnits="userSpaceOnUse">
			<stop  offset="0" style="pitch_stop-color:#333333"/>
			<stop  offset="0.3" style="pitch_stop-color:#1A1A1A"/>
			<stop  offset="0.5" style="pitch_stop-color:#000000"/>
			<stop  offset="0.7" style="pitch_stop-color:#000000"/>
			<stop  offset="1" style="pitch_stop-color:#000000"/>
		</radialGradient>
		
			<ellipse id="path1259" style="fill:url(#path1259_00000147215891391162253350000002772521551234803130_);" cx="128.6" cy="205.5" rx="6.7" ry="6.9"/>
	</g>
	<g id="g1778">
		<circle id="circle1774" class="pitch_st21" cx="29.6" cy="222" r="8.9"/>
		<path id="path1776" inkscape:connector-curvature="0" class="pitch_st22" d="M25.4,217.9c-0.2,0.1-0.3,0.5,0,0.7l1.3,2.1
			c0,0.2-0.1,0.5-0.2,0.7l-2.1,1.3c-0.3,0.2-0.4,0.5-0.3,0.7l1.5,2.5c0.1,0.2,0.5,0.3,0.7,0l1.9-1.2c0.3,0.2,0.7,0.3,1.1,0.3
			l1.1,1.9c0.2,0.3,0.5,0.4,0.7,0.3l2.5-1.5c0.2-0.1,0.3-0.5,0-0.7l-1-1.7c0.2-0.4,0.3-0.9,0.3-1.4l1.7-1c0.3-0.2,0.4-0.5,0.3-0.7
			l-1.5-2.5c0-0.2-0.5-0.3-0.7,0l-1.9,1.2c-0.3-0.1-0.6-0.2-1-0.2l-1.2-2c-0.2-0.3-0.5-0.4-0.7-0.3L25.4,217.9L25.4,217.9
			L25.4,217.9z"/>
	</g>
	<g id="g1784">
		<circle id="circle1780" class="pitch_st21" cx="220" cy="222" r="8.9"/>
		<path id="path1782" inkscape:connector-curvature="0" class="pitch_st22" d="M215.8,217.9c-0.2,0.1-0.3,0.5,0,0.7l1.3,2.1
			c0,0.2-0.1,0.5-0.2,0.7l-2.1,1.3c-0.3,0.2-0.4,0.5-0.3,0.7l1.5,2.5c0.1,0.2,0.5,0.3,0.7,0l1.9-1.2c0.3,0.2,0.7,0.3,1.1,0.3
			l1.1,1.9c0.2,0.3,0.5,0.4,0.7,0.3l2.5-1.5c0.2-0.1,0.3-0.5,0-0.7l-1-1.7c0.2-0.4,0.3-0.9,0.3-1.4l1.7-1c0.3-0.2,0.4-0.5,0.3-0.7
			l-1.5-2.5c-0.1-0.2-0.5-0.3-0.7,0l-1.9,1.2c-0.3-0.1-0.6-0.2-1-0.2l-1.2-2c-0.2-0.3-0.5-0.4-0.7-0.3L215.8,217.9L215.8,217.9
			L215.8,217.9z"/>
	</g>
	<g id="g1790">
		<circle id="circle1786" class="pitch_st21" cx="29.6" cy="28" r="8.9"/>
		<path id="path1788" inkscape:connector-curvature="0" class="pitch_st22" d="M25.4,23.9c-0.2,0.1-0.3,0.5,0,0.7l1.3,2.1
			c0,0.2-0.1,0.5-0.2,0.7l-2.1,1.3c-0.3,0.2-0.4,0.5-0.3,0.7l1.5,2.5c0.1,0.2,0.5,0.3,0.7,0l1.9-1.2c0.3,0.2,0.7,0.3,1.1,0.3
			l1.1,1.9c0.2,0.3,0.5,0.4,0.7,0.3l2.5-1.5c0.2-0.1,0.3-0.5,0-0.7l-1-1.7c0.2-0.4,0.3-0.9,0.3-1.4l1.7-1c0.3-0.2,0.4-0.5,0.3-0.7
			l-1.5-2.5c0-0.2-0.5-0.3-0.7,0l-1.9,1.2c-0.3-0.1-0.6-0.2-1-0.2l-1.2-2c-0.2-0.3-0.5-0.4-0.7-0.3C27.9,22.4,25.4,23.9,25.4,23.9z"
			/>
	</g>
	<g id="g1796">
		<circle id="circle1792" class="pitch_st21" cx="220" cy="28" r="8.9"/>
		<path id="path1794" inkscape:connector-curvature="0" class="pitch_st22" d="M215.8,23.9c-0.2,0.1-0.3,0.5,0,0.7l1.3,2.1
			c0,0.2-0.1,0.5-0.2,0.7l-2.1,1.3c-0.3,0.2-0.4,0.5-0.3,0.7l1.5,2.5c0.1,0.2,0.5,0.3,0.7,0l1.9-1.2c0.3,0.2,0.7,0.3,1.1,0.3
			l1.1,1.9c0.2,0.3,0.5,0.4,0.7,0.3l2.5-1.5c0.2-0.1,0.3-0.5,0-0.7l-1-1.7c0.2-0.4,0.3-0.9,0.3-1.4l1.7-1c0.3-0.2,0.4-0.5,0.3-0.7
			l-1.5-2.5c-0.1-0.2-0.5-0.3-0.7,0l-1.9,1.2c-0.3-0.1-0.6-0.2-1-0.2l-1.2-2c-0.2-0.3-0.5-0.4-0.7-0.3L215.8,23.9L215.8,23.9
			L215.8,23.9z"/>
	</g>
	<g id="g1903" class="pitch_st23">
		
			<radialGradient id="circle2789_00000127757903352015574690000018025799558051977905_" cx="-366.1857" cy="473.6718" r="71.3" gradientTransform="matrix(1.9322 1.7397 1.8736 -2.0808 -77.7399 1704.412)" gradientUnits="userSpaceOnUse">
			<stop  offset="0" style="pitch_stop-color:#F9F9F9;stop-opacity:0.5"/>
			<stop  offset="0.5" style="pitch_stop-color:#E6E6E6;stop-opacity:0.3"/>
			<stop  offset="1" style="pitch_stop-color:#000000;stop-opacity:0"/>
		</radialGradient>
		
			<circle id="circle2789" style="display:inline;fill:url(#circle2789_00000127757903352015574690000018025799558051977905_);" cx="125.4" cy="124.4" r="109.4"/>
		
			<g id="path2659" inkscape:flatsided="false" inkscape:randomized="0" inkscape:rounded="0.22" inkscape:transform-center-x="0.0023137643" inkscape:transform-center-y="0.021133168" sodipodi:arg1="0.68067841" sodipodi:arg2="0.91598174" sodipodi:cx="480.9801" sodipodi:cy="339.96359" sodipodi:r1="7.1255984" sodipodi:r2="13.971762" sodipodi:sides="21" sodipodi:type="pitch_star" class="pitch_st25">
			<path class="pitch_st26" d="M97.2,74.9c-0.9,1,3.4,4.6,2.5,5.5s-2.7-4.9-3.8-4.3c-1.2,0.6,1.9,5.4,0.7,6c-1.1,0.5-1.1-5.5-2.3-5.3
				c-1.3,0.3,0.3,5.8-1,6c-1.2,0.2,0.5-5.6-0.7-5.7c-1.3,0-1.4,5.6-2.7,5.4c-1.2-0.2,2.2-5.2,1-5.7s-3,4.9-4.2,4.3
				c-1.1-0.6,3.6-4.3,2.6-5.1c-1-0.9-4.3,3.8-5.3,2.9c-0.9-0.9,4.7-3.1,4-4.1c-0.7-1.1-5.2,2.4-5.9,1.2c-0.6-1.1,5.3-1.5,5-2.7
				c-0.4-1.3-5.7,0.7-5.9-0.6c-0.3-1.2,5.5,0,5.6-1.1c0-1.3-5.6-1-5.5-2.4c0-1.3,5.3,1.8,5.7,0.6c0.4-1.3-5.1-2.7-4.6-3.9
				c0.5-1.2,4.5,3.3,5.2,2.2c0.8-1.1-4.1-4.1-3.2-5.1c0.8-1,3.4,4.5,4.3,3.7c1-0.8-2.7-5.1-1.6-5.8c1-0.7,1.9,5.3,3.1,4.8
				s-1.1-5.7,0.2-6.1c1.2-0.4,0.3,5.6,1.5,5.5c1.3,0,0.6-5.8,1.9-5.7c1.2,0-1.4,5.5-0.2,5.8c1.3,0.3,2.2-5.3,3.5-4.9
				c1.2,0.4-2.9,4.8-1.8,5.5s3.7-4.4,4.8-3.7c1,0.7-4.2,3.7-3.3,4.7c0.9,1,4.8-3.1,5.6-2.1c0.8,1-5.1,2.3-4.5,3.5
				c0.5,1.2,5.5-1.5,6-0.3c0.4,1.2-5.5,0.7-5.3,2s5.7,0.2,5.8,1.5c0,1.3-5.5-1-5.7,0.3s5.4,1.9,5.1,3.2c-0.3,1.2-4.9-2.6-5.5-1.4
				s4.6,3.4,4,4.5s-4-3.9-4.8-3L97.2,74.9L97.2,74.9z"/>
		</g>
	</g>
</g>
<script  type="text/javascript">//<![CDATA[ // this is to make javascript work in the SVG, leave it alone

    function updatePitchSVG(instrumentValue){
    // ========================================
    // STUDENT EDIT ZONE
    // This section controls how the gauge displays
    // ========================================

    /**
     * Updates the speed gauge display
     * - The indicator group slides vertically to show speed
     * - -100 = moves UP 1/5 of image height from starting position
     * - 0 = at y=0 (starting position at top of viewBox)
     * - +100 = moves DOWN 1/5 of image height from starting position
     * 
     * Movement is calculated as a fraction of the SVG height so it scales properly
     */

      // Get the SVG's viewBox to calculate height dynamically
      const svg = document.querySelector('svg');
      const viewBox = svg.viewBox.baseVal;
      const svgHeight = 248;//viewBox.height;  //hardcoded to work inside presentation
      
      // Calculate movement range: 1/5 of the total SVG height
      const movementRange = svgHeight * 0.2; // 0.2 = 1/5
      
      // Calculate y position offset
      // Positive value moves DOWN (for positive speed), negative value moves UP (for negative speed)
      const yOffset = (instrumentValue / 100) * movementRange;

      // Get the indicator group element
      const indicator = document.getElementById('indicator');
      if (!indicator) {
        console.log('Cannot find element to animate');
        return;
      }

      // Apply vertical translation to move the indicator up or down
      indicator.setAttribute('transform', `translate(0, ${yOffset})`);


    // ========================================
    // END STUDENT EDIT ZONE
    // ========================================

    }


    setInterval(() => { // do this repeatedly

    // Check localStorage for updates
      const thisSVGfilename = 'pitch';//window.location.pathname;
    // this SVG expects a localStorage with the same name as its file
      const localStorageName =  thisSVGfilename.substring(thisSVGfilename.lastIndexOf('/') + 1, thisSVGfilename.lastIndexOf('.'));
      let instrumentValue = localStorage.getItem(localStorageName);



    //if (instrumentValue !== null) {
      // Make sure value is between -100 and +100
   //   instrumentValue = Math.max(-100, Math.min(100, instrumentValue));

  //  } else {
    // no localStorage, so make up a number, so it swings back and forth
    // Initialize static variables if they don't exist
    if (typeof window.pitchtestValue === 'undefined') {
      window.pitchtestValue = -100;
      window.pitchtestDirection = 1; // 1 for increasing, -1 for decreasing
    }

    // Update the test value
    window.pitchtestValue += window.pitchtestDirection * 2; // increment by 2 each time

    // Reverse direction at boundaries
    if (window.pitchtestValue >= 100) {
      window.pitchtestValue = 100;
      window.pitchtestDirection = -1;
    } else if (window.pitchtestValue <= -100) {
      window.pitchtestValue = -100;
      window.pitchtestDirection = 1;
    }

    instrumentValue = window.pitchtestValue;
    //console.log('no local storage "'+localStorageName+'", using test value:', instrumentValue);

    // }

    updatePitchSVG(instrumentValue)



    }, 50);  //end of setInterval code.  50 is 50 milliseconds or 20 times per second.

  //
	]]>
// this is to make javascript work in the SVG, leave it alone</script>
</svg>
