<?xml version="1.0" encoding="UTF-8"?><svg xmlns="http://www.w3.org/2000/svg" xmlns:xlink="http://www.w3.org/1999/xlink" xmlns:svg="http://www.w3.org/2000/svg" xmlns:sodipodi="http://sodipodi.sourceforge.net/DTD/sodipodi-0.dtd" xmlns:rdf="http://www.w3.org/1999/02/22-rdf-syntax-ns#" xmlns:inkscape="http://www.inkscape.org/namespaces/inkscape" xmlns:dc="http://purl.org/dc/elements/1.1/" xmlns:cc="http://creativecommons.org/ns#" id="compass" version="1.1" viewBox="0 0 300 300">
  <!-- Generator: Adobe Illustrator 30.0.0, SVG Export Plug-In . SVG Version: 2.1.1 Build 123)  -->
  <defs>
    <style>
      .st0 {
        fill: #231f00;
        stroke: blue;
        stroke-width: 1.6px;
      }

      .st0, .st1, .st2, .st3, .st4, .st5, .st6 {
        stroke-miterlimit: 6.2;
      }

      .st7, .st1, .st8, .st9 {
        fill: #1a1a1a;
      }

      .st7, .st2, .st5, .st6 {
        stroke-width: .1px;
      }

      .st7, .st10, .st8 {
        stroke: #000;
        stroke-miterlimit: 11.3;
      }

      .st1, .st2 {
        stroke: #666;
      }

      .st1, .st10, .st3, .st8 {
        stroke-width: .2px;
      }

      .st11 {
        fill: none;
        stroke: #545454;
        stroke-miterlimit: 10;
      }

      .st12 {
        fill: url(#radial-gradient);
      }

      .st2, .st13, .st4, .st5, .st6 {
        fill-rule: evenodd;
      }

      .st10, .st14 {
        fill: #333;
      }

      .st13 {
        fill: red;
      }

      .st3, .st6 {
        stroke: gray;
      }

      .st15 {
        fill: #fff;
      }

      .st4 {
        stroke: url(#linear-gradient);
        stroke-width: 2px;
      }

      .st5 {
        stroke: #999;
      }
    </style>
    <linearGradient id="linear-gradient" x1="21.7" y1="700.6" x2="278.9" y2="443.3" gradientTransform="translate(0 722) scale(1 -1)" gradientUnits="userSpaceOnUse">
      <stop offset="0" stop-color="#686868"/>
      <stop offset="1" stop-color="#000"/>
    </linearGradient>
    <radialGradient id="radial-gradient" cx="-1758.6" cy="1390.1" fx="-1758.6" fy="1390.1" r="85.5" gradientTransform="translate(962.1 5977.1) rotate(42) scale(2.6 -2.7)" gradientUnits="userSpaceOnUse">
      <stop offset="0" stop-color="#f9f9f9" stop-opacity=".5"/>
      <stop offset=".5" stop-color="#e6e6e6" stop-opacity=".3"/>
      <stop offset="1" stop-color="#000" stop-opacity="0"/>
    </radialGradient>
  </defs>
  <g id="frame">
    <path id="bezel" class="st4" d="M18.6,26.8c1.1-2.5,4.6-5.9,8-7.2L74.8,1h148.9l51.8,18.5c3.1,1.3,5.4,4.4,6.6,7.6l16.4,48.6v148.7l-17.3,49.4c-2.4,4.3-3.6,5.2-8.3,7.6,0,0-26.5,14-49.2,17.4H74.9c-15.7.4-48.4-16.7-48.4-16.7-3.1-1.6-6.7-5.9-7.8-9.2,0,0-18.3-37.8-18.3-48.4V75.8L18.7,26.9h0,0Z" inkscape:connector-curvature="0" sodipodi:nodetypes="ccccccccccccccccc"/>
    <g id="g16431">
      <circle id="circle16391" class="st3" cx="36.3" cy="267.1" r="10.7"/>
      <path id="path16411" class="st6" d="M31.3,262.2c-.2,0-.4.6,0,.8l1.6,2.5c0,.2,0,.6-.2.8l-2.5,1.6c-.4.2-.5.6-.4.8l1.8,3c0,.2.6.4.8,0l2.3-1.4c.4.2.8.4,1.3.4l1.3,2.3c.2.4.6.5.8.4l3-1.8c.2,0,.4-.6,0-.8l-1.2-2c.2-.5.4-1.1.4-1.7l2-1.2c.4-.2.5-.6.4-.8l-1.8-3c0-.2-.6-.4-.8,0l-2.3,1.4c-.4,0-.7-.2-1.2-.2l-1.4-2.4c-.2-.4-.6-.5-.8-.4l-3,1.8h0Z" inkscape:connector-curvature="0"/>
    </g>
    <g id="g16501">
      <circle id="circle16451" class="st3" cx="264.6" cy="267.1" r="10.7"/>
      <path id="path16481" class="st6" d="M259.5,262.2c-.2,0-.4.6,0,.8l1.6,2.5c0,.2-.1.6-.2.8l-2.5,1.6c-.4.2-.5.6-.4.8l1.8,3c.1.2.6.4.8,0l2.3-1.4c.4.2.8.4,1.3.4l1.3,2.3c.2.4.6.5.8.4l3-1.8c.2,0,.4-.6,0-.8l-1.2-2c.2-.5.4-1.1.4-1.7l2-1.2c.4-.2.5-.6.4-.8l-1.8-3c-.1-.2-.6-.4-.8,0l-2.3,1.4c-.4,0-.7-.2-1.2-.2l-1.4-2.4c-.2-.4-.6-.5-.8-.4l-3,1.8h0Z" inkscape:connector-curvature="0"/>
    </g>
    <g id="g16571">
      <circle id="circle16521" class="st3" cx="36.3" cy="34.5" r="10.7"/>
      <path id="path16551" class="st5" d="M31.3,29.6c-.2.1-.4.6,0,.8l1.6,2.5c0,.2,0,.6-.2.8l-2.5,1.6c-.4.2-.5.6-.4.8l1.8,3c0,.2.6.4.8,0l2.3-1.4c.4.2.8.4,1.3.4l1.3,2.3c.2.4.6.5.8.4l3-1.8c.2-.1.4-.6,0-.8l-1.2-2c.2-.5.4-1.1.4-1.7l2-1.2c.4-.2.5-.6.4-.8l-1.8-3c0-.2-.6-.4-.8,0l-2.3,1.4c-.4-.1-.7-.2-1.2-.2l-1.4-2.4c-.2-.4-.6-.5-.8-.4l-3,1.8h0Z" inkscape:connector-curvature="0"/>
    </g>
    <g id="g16631">
      <circle id="circle16591" class="st3" cx="264.6" cy="34.5" r="10.7"/>
      <path id="path16611" class="st6" d="M259.5,29.6c-.2.1-.4.6,0,.8l1.6,2.5c0,.2-.1.6-.2.8l-2.5,1.6c-.4.2-.5.6-.4.8l1.8,3c.1.2.6.4.8,0l2.3-1.4c.4.2.8.4,1.3.4l1.3,2.3c.2.4.6.5.8.4l3-1.8c.2-.1.4-.6,0-.8l-1.2-2c.2-.5.4-1.1.4-1.7l2-1.2c.4-.2.5-.6.4-.8l-1.8-3c-.1-.2-.6-.4-.8,0l-2.3,1.4c-.4-.1-.7-.2-1.2-.2l-1.4-2.4c-.2-.4-.6-.5-.8-.4l-3,1.8h0Z" inkscape:connector-curvature="0"/>
    </g>
    <g id="screws">
      <g id="g20091">
        <circle id="circle20051" class="st1" cx="36.4" cy="267.3" r="10.7"/>
        <path id="path20071" class="st2" d="M31.4,262.2c-.2,0-.4.6,0,.8l1.6,2.5c0,.2,0,.6-.2.8l-2.5,1.6c-.4.2-.5.6-.4.8l1.8,3c0,.2.6.4.8,0l2.3-1.4c.4.2.8.4,1.3.4l1.3,2.3c.2.4.6.5.8.4l3-1.8c.2,0,.4-.6,0-.8l-1.2-2c.2-.5.4-1.1.4-1.7l2-1.2c.4-.2.5-.6.4-.8l-1.8-3c0-.2-.6-.4-.8,0l-2.3,1.4c-.4,0-.7-.2-1.2-.2l-1.4-2.4c-.2-.4-.6-.5-.8-.4l-3,1.8h0Z" inkscape:connector-curvature="0"/>
      </g>
      <g id="g20151">
        <circle id="circle20111" class="st1" cx="264.7" cy="267.3" r="10.7"/>
        <path id="path20131" class="st2" d="M259.7,262.2c-.2,0-.4.6,0,.8l1.6,2.5c0,.2-.1.6-.2.8l-2.5,1.6c-.4.2-.5.6-.4.8l1.8,3c.1.2.6.4.8,0l2.3-1.4c.4.2.8.4,1.3.4l1.3,2.3c.2.4.6.5.8.4l3-1.8c.2,0,.4-.6,0-.8l-1.2-2c.2-.5.4-1.1.4-1.7l2-1.2c.4-.2.5-.6.4-.8l-1.8-3c-.1-.2-.6-.4-.8,0l-2.3,1.4c-.4,0-.7-.2-1.2-.2l-1.4-2.4c-.2-.4-.6-.5-.8-.4l-3,1.8h0Z" inkscape:connector-curvature="0"/>
      </g>
      <g id="g20221">
        <circle id="circle20171" class="st1" cx="36.4" cy="34.5" r="10.7"/>
        <path id="path20201" class="st2" d="M31.4,29.6c-.2.1-.4.6,0,.8l1.6,2.5c0,.2,0,.6-.2.8l-2.5,1.6c-.4.2-.5.6-.4.8l1.8,3c0,.2.6.4.8,0l2.3-1.4c.4.2.8.4,1.3.4l1.3,2.3c.2.4.6.5.8.4l3-1.8c.2-.1.4-.6,0-.8l-1.2-2c.2-.5.4-1.1.4-1.7l2-1.2c.4-.2.5-.6.4-.8l-1.8-3c0-.2-.6-.4-.8,0l-2.3,1.4c-.4-.1-.7-.2-1.2-.2l-1.4-2.4c-.2-.4-.6-.5-.8-.4l-3,1.8h0Z" inkscape:connector-curvature="0"/>
      </g>
      <g id="g20301">
        <circle id="circle20241" class="st1" cx="264.7" cy="34.5" r="10.7"/>
        <path id="path20281" class="st2" d="M259.7,29.6c-.2.1-.4.6,0,.8l1.6,2.5c0,.2-.1.6-.2.8l-2.5,1.6c-.4.2-.5.6-.4.8l1.8,3c.1.2.6.4.8,0l2.3-1.4c.4.2.8.4,1.3.4l1.3,2.3c.2.4.6.5.8.4l3-1.8c.2-.1.4-.6,0-.8l-1.2-2c.2-.5.4-1.1.4-1.7l2-1.2c.4-.2.5-.6.4-.8l-1.8-3c-.1-.2-.6-.4-.8,0l-2.3,1.4c-.4-.1-.7-.2-1.2-.2l-1.4-2.4c-.2-.4-.6-.5-.8-.4l-3,1.8h0Z" inkscape:connector-curvature="0"/>
      </g>
    </g>
    <circle id="circle16671" class="st8" cx="147.8" cy="149.9" r="140.2"/>
    <circle id="circle16691" class="st10" cx="147.8" cy="149.9" r="129.1"/>
    <circle id="circle16711" class="st7" cx="147.8" cy="149.9" r="97.1"/>
  </g>
  <g id="compass-rotating">
    <g id="lines">
      <path id="path1427" class="st11" d="M161.4,24l-23.3,252.1" inkscape:connector-curvature="0"/>
      <path id="path1431" class="st11" d="M183.1,27.9l-66.7,244.3" inkscape:connector-curvature="0"/>
      <path id="path1433" class="st11" d="M203.9,35.6l-108,229" inkscape:connector-curvature="0"/>
      <path id="path1435" class="st11" d="M223,46.7L76.8,253.5" inkscape:connector-curvature="0"/>
      <path id="path1437" class="st11" d="M239.7,61L59.9,239.3" inkscape:connector-curvature="0"/>
      <path id="path1439" class="st11" d="M253.9,77.9L45.7,222.2" inkscape:connector-curvature="0"/>
      <path id="path1441" class="st11" d="M264.7,97.1L34.7,203.1" inkscape:connector-curvature="0"/>
      <path id="path1443" class="st11" d="M272.2,117.8L27.3,182.2" inkscape:connector-curvature="0"/>
      <path id="path1445" class="st11" d="M276.1,139.6l-252.4,21" inkscape:connector-curvature="0"/>
      <path id="path1447" class="st11" d="M275.9,161.7l-252.1-23.3" inkscape:connector-curvature="0"/>
      <path id="path1449" class="st11" d="M272,183.4L27.7,116.7" inkscape:connector-curvature="0"/>
      <path id="path1451" class="st11" d="M264.2,204.2L35.2,96.2" inkscape:connector-curvature="0"/>
      <path id="path1453" class="st11" d="M253.2,223.2L46.5,77.1" inkscape:connector-curvature="0"/>
      <path id="path1455" class="st11" d="M239,240L60.7,60.2" inkscape:connector-curvature="0"/>
      <path id="path1457" class="st11" d="M222,254.1L77.7,46" inkscape:connector-curvature="0"/>
      <path id="path1459" class="st11" d="M202.7,265.1L96.7,35.1" inkscape:connector-curvature="0"/>
      <path id="path1461" class="st11" d="M182.1,272.5L117.7,27.6" inkscape:connector-curvature="0"/>
      <path id="path1463" class="st11" d="M160.2,276.3l-21-252.4" inkscape:connector-curvature="0"/>
      <g id="g1523">
        <path id="path1515" class="st11" d="M149.7,247.9v26.9" inkscape:connector-curvature="0"/>
        <path id="path1519" class="st11" d="M149.7,25.2v26.9" inkscape:connector-curvature="0"/>
      </g>
      <g id="g1529">
        <path id="path1525" class="st11" d="M132.7,246.4l-4.7,26.4" inkscape:connector-curvature="0"/>
        <path id="path1527" class="st11" d="M171.5,27.1l-4.7,26.4" inkscape:connector-curvature="0"/>
      </g>
      <g id="g1536">
        <path id="path1532" class="st11" d="M116.4,241.9l-9.2,25.2" inkscape:connector-curvature="0"/>
        <path id="path1534" class="st11" d="M192.5,32.7l-9.2,25.2" inkscape:connector-curvature="0"/>
      </g>
      <g id="g1542">
        <path id="path1538" class="st11" d="M100.9,234.7l-13.4,23.3" inkscape:connector-curvature="0"/>
        <path id="path1540" class="st11" d="M212.2,41.8l-13.4,23.3" inkscape:connector-curvature="0"/>
      </g>
      <g id="g1548">
        <path id="path1544" class="st11" d="M86.9,225l-17.3,20.5" inkscape:connector-curvature="0"/>
        <path id="path1546" class="st11" d="M230,54.3l-17.3,20.5" inkscape:connector-curvature="0"/>
      </g>
      <g id="g1554">
        <path id="path1550" class="st11" d="M74.7,212.9l-20.5,17.3" inkscape:connector-curvature="0"/>
        <path id="path1552" class="st11" d="M245.5,69.8l-20.5,17.3" inkscape:connector-curvature="0"/>
      </g>
      <g id="g1560">
        <path id="path1556" class="st11" d="M65.1,198.9l-23.3,13.4" inkscape:connector-curvature="0"/>
        <path id="path1558" class="st11" d="M258,87.5l-23.3,13.4" inkscape:connector-curvature="0"/>
      </g>
      <g id="g1566">
        <path id="path1562" class="st11" d="M57.7,183.4l-25.2,9.2" inkscape:connector-curvature="0"/>
        <path id="path1564" class="st11" d="M267.1,107.3l-25.2,9.2" inkscape:connector-curvature="0"/>
      </g>
      <g id="g1572">
        <path id="path1568" class="st11" d="M53.4,167l-26.4,4.7" inkscape:connector-curvature="0"/>
        <path id="path1570" class="st11" d="M272.7,128.3l-26.4,4.7" inkscape:connector-curvature="0"/>
      </g>
      <g id="g1578">
        <path id="path1574" class="st11" d="M51.9,150h-26.9" inkscape:connector-curvature="0"/>
        <path id="path1576" class="st11" d="M274.6,150h-26.9" inkscape:connector-curvature="0"/>
      </g>
      <g id="g1584">
        <path id="path1580" class="st11" d="M53.4,132.9l-26.4-4.7" inkscape:connector-curvature="0"/>
        <path id="path1582" class="st11" d="M272.7,171.7l-26.4-4.7" inkscape:connector-curvature="0"/>
      </g>
      <g id="g1590">
        <path id="path1586" class="st11" d="M57.7,116.4l-25.2-9.2" inkscape:connector-curvature="0"/>
        <path id="path1588" class="st11" d="M267.1,192.6l-25.2-9.2" inkscape:connector-curvature="0"/>
      </g>
      <g id="g1596">
        <path id="path1592" class="st11" d="M65.1,100.9l-23.3-13.4" inkscape:connector-curvature="0"/>
        <path id="path1594" class="st11" d="M258,212.3l-23.3-13.4" inkscape:connector-curvature="0"/>
      </g>
      <g id="g1602">
        <path id="path1598" class="st11" d="M74.7,87l-20.5-17.3" inkscape:connector-curvature="0"/>
        <path id="path1600" class="st11" d="M245.5,230.2l-20.5-17.3" inkscape:connector-curvature="0"/>
      </g>
      <g id="g1608">
        <path id="path1604" class="st11" d="M86.9,74.9l-17.3-20.5" inkscape:connector-curvature="0"/>
        <path id="path1606" class="st11" d="M230,245.5l-17.3-20.5" inkscape:connector-curvature="0"/>
      </g>
      <g id="g1614">
        <path id="path1610" class="st11" d="M100.9,65.1l-13.4-23.3" inkscape:connector-curvature="0"/>
        <path id="path1612" class="st11" d="M212.2,258l-13.4-23.3" inkscape:connector-curvature="0"/>
      </g>
      <g id="g1621">
        <path id="path1616" class="st11" d="M116.4,57.9l-9.2-25.2" inkscape:connector-curvature="0"/>
        <path id="path1619" class="st11" d="M192.5,267.2l-9.2-25.2" inkscape:connector-curvature="0"/>
      </g>
      <g id="g1627">
        <path id="path1623" class="st11" d="M132.7,53.4l-4.7-26.4" inkscape:connector-curvature="0"/>
        <path id="path1625" class="st11" d="M171.5,272.8l-4.7-26.4" inkscape:connector-curvature="0"/>
      </g>
    </g>
    <g id="red">
      <g id="g1371">
        <path id="path1367" class="st13" d="M235.2,243.3l7.9-7.9-13.8-5.6,5.9,13.5h0Z" inkscape:flatsided="true" inkscape:randomized="0" inkscape:rounded="2.42861e-017" inkscape:transform-center-x="1.2193384" inkscape:transform-center-y="-0.037354003" sodipodi:arg1="2.0769418" sodipodi:arg2="3.1241394" sodipodi:cx="-207.6991" sodipodi:cy="182.56541" sodipodi:r1="8.5093012" sodipodi:r2="4.2546501" sodipodi:sides="3" sodipodi:type="star"/>
        <path id="path1369" class="st13" d="M55.6,63.7l7.9-7.9,5.6,13.8-13.5-5.9Z" inkscape:flatsided="true" inkscape:randomized="0" inkscape:rounded="2.42861e-017" inkscape:transform-center-x="-1.2193428" inkscape:transform-center-y="-0.037354003" sodipodi:arg1="2.0769418" sodipodi:arg2="3.1241394" sodipodi:cx="-207.6991" sodipodi:cy="182.56541" sodipodi:r1="8.5093012" sodipodi:r2="4.2546501" sodipodi:sides="3" sodipodi:type="star"/>
      </g>
      <g id="g1377">
        <path id="path1373" class="st13" d="M144.2,274.9h11.1l-5.8-13.7-5.4,13.7h.1Z" inkscape:flatsided="true" inkscape:randomized="0" inkscape:rounded="2.42861e-017" inkscape:transform-center-x="1.2193384" inkscape:transform-center-y="-0.037354003" sodipodi:arg1="2.0769418" sodipodi:arg2="3.1241394" sodipodi:cx="-207.6991" sodipodi:cy="182.56541" sodipodi:r1="8.5093012" sodipodi:r2="4.2546501" sodipodi:sides="3" sodipodi:type="star"/>
        <path id="path1375" class="st13" d="M144.2,25.2h11.1l-5.8,13.7-5.4-13.7h.1Z" inkscape:flatsided="true" inkscape:randomized="0" inkscape:rounded="2.42861e-017" inkscape:transform-center-x="-1.2193428" inkscape:transform-center-y="-0.037354003" sodipodi:arg1="2.0769418" sodipodi:arg2="3.1241394" sodipodi:cx="-207.6991" sodipodi:cy="182.56541" sodipodi:r1="8.5093012" sodipodi:r2="4.2546501" sodipodi:sides="3" sodipodi:type="star"/>
      </g>
      <g id="g1383">
        <path id="path1379" class="st13" d="M56.6,235.4l7.9,7.9,5.6-13.8-13.5,5.9h0Z" inkscape:flatsided="true" inkscape:randomized="0" inkscape:rounded="2.42861e-017" inkscape:transform-center-x="1.2193384" inkscape:transform-center-y="-0.037354003" sodipodi:arg1="2.0769418" sodipodi:arg2="3.1241394" sodipodi:cx="-207.6991" sodipodi:cy="182.56541" sodipodi:r1="8.5093012" sodipodi:r2="4.2546501" sodipodi:sides="3" sodipodi:type="star"/>
        <path id="path1381" class="st13" d="M235.2,56.8l7.9,7.9-13.8,5.6,5.9-13.5h0Z" inkscape:flatsided="true" inkscape:randomized="0" inkscape:rounded="2.42861e-017" inkscape:transform-center-x="-1.2193428" inkscape:transform-center-y="-0.037354003" sodipodi:arg1="2.0769418" sodipodi:arg2="3.1241394" sodipodi:cx="-207.6991" sodipodi:cy="182.56541" sodipodi:r1="8.5093012" sodipodi:r2="4.2546501" sodipodi:sides="3" sodipodi:type="star"/>
      </g>
      <g id="g1365">
        <path id="path1361" class="st13" d="M274.7,155.6v-11.1l-13.7,5.8,13.7,5.4h0Z" inkscape:flatsided="true" inkscape:randomized="0" inkscape:rounded="2.42861e-017" inkscape:transform-center-x="1.2193384" inkscape:transform-center-y="-0.037354003" sodipodi:arg1="2.0769418" sodipodi:arg2="3.1241394" sodipodi:cx="-207.6991" sodipodi:cy="182.56541" sodipodi:r1="8.5093012" sodipodi:r2="4.2546501" sodipodi:sides="3" sodipodi:type="star"/>
        <path id="path1363" class="st13" d="M25,155.6v-11.1l13.7,5.8-13.7,5.4h0Z" inkscape:flatsided="true" inkscape:randomized="0" inkscape:rounded="2.42861e-017" inkscape:transform-center-x="-1.2193428" inkscape:transform-center-y="-0.037354003" sodipodi:arg1="2.0769418" sodipodi:arg2="3.1241394" sodipodi:cx="-207.6991" sodipodi:cy="182.56541" sodipodi:r1="8.5093012" sodipodi:r2="4.2546501" sodipodi:sides="3" sodipodi:type="star"/>
      </g>
    </g>
    <g id="direction-nums">
      <g id="g1641">
        <g id="text1631">
          <path id="path1825" class="st15" d="M184.9,76.2l2.2.8c-.5,1.2-.5,2.3-.2,3.1s.8,1.4,1.6,1.9,1.9.7,2.9.4c1-.2,1.8-.8,2.4-1.8s.6-1.8.4-2.8-.8-1.7-1.8-2.2-.8-.4-1.6-.6l1.2-1.6c0,0,.2.1.4.2.8.5,1.7.7,2.6.6s1.7-.5,2.2-1.4.5-1.4.4-2.3c-.2-.7-.7-1.3-1.4-1.8s-1.6-.6-2.4-.4-1.6.7-2.3,1.6l-1.8-1.4c1-1.2,2.2-1.9,3.5-2.2,1.3-.2,2.5,0,3.8.7s1.6,1.2,2.2,1.9c.5.8.8,1.7.8,2.5s-.2,1.7-.6,2.4-1,1.2-1.7,1.6-1.6.5-2.4.4c.8.7,1.3,1.7,1.4,2.6,0,1,0,2-.7,3s-2,2.3-3.6,2.6c-1.6.4-3.1.1-4.7-.8s-2.4-1.9-2.8-3.4c-.5-1.4-.4-2.8.2-4.2h0v.4l-.2.2Z" inkscape:connector-curvature="0"/>
        </g>
        <g id="text1635">
          <path id="path1802" class="st15" d="M108.7,219.4l1.1-1.9,10.7,6.1c-.2.5-.6.8-1.1,1.2-.7.6-1.6,1.1-2.5,1.4s-2.4.7-4,1c-2.6.5-4.4.8-5.5,1.3s-1.9,1.1-2.3,1.8-.6,1.6-.2,2.5c.2.8.8,1.6,1.7,2s1.9.7,2.8.5c1-.2,1.7-.8,2.3-1.9l1.9,1.4c-1,1.4-2.2,2.3-3.6,2.5-1.3.2-2.9,0-4.3-1s-2.5-2-2.9-3.4c-.4-1.3-.2-2.8.5-4s.8-1.2,1.4-1.7,1.4-.8,2.4-1.2,2.5-.7,4.7-1.1c1.8-.4,2.9-.6,3.5-.7s1.1-.4,1.4-.6l-7.9-4.6h0v.4Z" inkscape:connector-curvature="0"/>
          <path id="path1805" class="st15" d="M100.2,211.9l1.9,1.2-7.3,12.6c.7,0,1.7-.2,2.6-.2s1.9,0,2.6,0l-1.1,1.9c-1.4,0-2.8,0-4,.2s-2.3.6-3,1.1l-1.3-.7,9.4-16.2h.2Z" inkscape:connector-curvature="0"/>
        </g>
      </g>
      <g id="g1651">
        <g id="text1645">
          <path id="path1828" class="st15" d="M231.6,111.2l-1.3-1.9c.7-.6,1.1-1.2,1.3-1.7.2-.8,0-1.7-.2-2.5s-.8-1.1-1.4-1.3c-.8-.4-1.8-.5-2.9-.4s-2.4.7-4.1,1.6c1,0,1.9.4,2.6.8s1.3,1.1,1.8,1.9c.7,1.3,1,2.8.5,4.2-.5,1.4-1.4,2.6-3,3.6s-2,1-3.2,1-2.2-.1-3-.6c-1-.5-1.7-1.2-2.2-2.2-1-1.7-1.1-3.4-.5-5,.6-1.8,2.3-3.5,5.2-5,2.9-1.6,5.8-2.5,7.8-2.2,1.8.2,3.2,1.3,4.2,3s1,2.5.7,3.7-1,2.3-2.2,3.1h0,0ZM220,107.2c-.7.4-1.2,1-1.7,1.6s-.7,1.3-.7,2,0,1.3.5,1.9c.5.8,1.2,1.3,2.3,1.6,1.1.2,2.2,0,3.2-.7s1.8-1.4,2.2-2.4.2-1.9-.4-2.8-1.3-1.4-2.3-1.7c-1-.2-2,0-3,.5h0Z" inkscape:connector-curvature="0"/>
        </g>
        <g id="text1649">
          <path id="path1810" class="st15" d="M79,190.1l1.9-1.1,6.1,10.7c-.5.2-1,.5-1.6.6-.8,0-1.8,0-2.9,0-1.1-.2-2.4-.6-4-1.2-2.4-1-4.3-1.4-5.5-1.6-1.2,0-2.2,0-2.9.5s-1.3,1.1-1.4,2c-.2.8,0,1.8.5,2.6s1.3,1.6,2.2,1.8,1.9,0,2.9-.5l1,2.2c-1.6.7-3,.8-4.3.5-1.3-.5-2.4-1.4-3.4-3s-1.2-3-.8-4.4,1.2-2.5,2.4-3.2,1.3-.6,2.2-.7c.7,0,1.7,0,2.8.2s2.5.7,4.6,1.4c1.7.6,2.8,1,3.4,1.1s1.1.2,1.6.2l-4.6-7.9v-.2h-.2Z" inkscape:connector-curvature="0"/>
          <path id="path1812" class="st15" d="M76,180.5l-3.8,2.3,4.1,7-1.8,1.1-14.6-1.3-1-1.6,10.4-6-1.2-2.2,1.8-1.1,1.2,2.2,3.8-2.3,1.2,1.9h-.1ZM70.2,183.9l-7.3,4.2,10.2.8-2.9-5Z" inkscape:connector-curvature="0"/>
        </g>
      </g>
      <g id="g1669">
        <g id="text1663">
          <path id="path1831" class="st15" d="M219.4,184.4l1.2-1.9,12.6,7.3c0-.7-.2-1.7-.2-2.6s0-1.9,0-2.6l1.9,1.1c0,1.4,0,2.8.2,4s.6,2.3,1.1,3l-.7,1.3-16.2-9.4h0v-.2Z" inkscape:connector-curvature="0"/>
          <path id="path1834" class="st15" d="M212.2,200.9l-1.9-1.1,6.1-10.7c.5.2.8.6,1.2,1.1.6.7,1.1,1.6,1.4,2.5.4,1,.7,2.4,1,4,.5,2.6.8,4.4,1.3,5.5s1.1,1.9,1.8,2.3,1.6.6,2.5.2c.8-.2,1.6-.8,2-1.7s.7-1.9.5-2.8c-.2-1-.8-1.7-1.9-2.3l1.4-1.9c1.4,1,2.3,2.2,2.5,3.6.2,1.3,0,2.9-1,4.3s-2,2.5-3.4,2.9-2.8.2-4-.5-1.2-.8-1.7-1.4-.8-1.4-1.2-2.4-.7-2.5-1.1-4.7c-.4-1.8-.6-2.9-.7-3.5s-.4-1.1-.6-1.4l-4.6,7.9h.4Z" inkscape:connector-curvature="0"/>
        </g>
        <g id="text1667">
          <path id="path1815" class="st15" d="M70.9,119l.8-2.2c1.2.5,2.3.5,3.1.2.8-.2,1.4-.8,1.9-1.6.5-1,.7-1.9.4-2.9-.2-1-.8-1.8-1.8-2.4s-1.8-.6-2.8-.4-1.7.8-2.2,1.8-.4.8-.6,1.6l-1.6-1.2c0-.1,0-.2.2-.4.5-.8.7-1.7.6-2.6,0-1-.5-1.7-1.4-2.2s-1.4-.5-2.3-.4c-.7.2-1.3.7-1.8,1.4s-.6,1.6-.4,2.4.7,1.6,1.6,2.3l-1.4,1.8c-1.2-1-1.9-2.2-2.2-3.5s0-2.5.7-3.8,1.2-1.6,1.9-2.2c.8-.5,1.7-.8,2.5-.8s1.7.2,2.4.6,1.2,1,1.6,1.7.5,1.6.4,2.4c.7-.8,1.7-1.3,2.6-1.4s2,0,3,.7,2.3,2,2.6,3.6,0,3.1-.8,4.7c-.8,1.4-1.9,2.4-3.4,2.8-1.4.5-2.8.4-4.2-.2h.4l.2.2Z" inkscape:connector-curvature="0"/>
          <path id="path1817" class="st15" d="M74.4,104.4c-1.9-1.1-3.4-2.2-4.3-3.2-1-1.1-1.4-2.2-1.7-3.4s0-2.3.7-3.5,1.1-1.6,1.8-1.9c.7-.5,1.6-.7,2.4-.7s1.9,0,3,.4c1.1.2,2.4,1,4,1.8s3.4,2.2,4.2,3.2c1,1.1,1.4,2.2,1.7,3.4.2,1.1,0,2.3-.7,3.5s-2.2,2.4-3.8,2.6c-1.9.2-4.4-.5-7.4-2.2h.2-.1ZM75.6,102.4c2.6,1.6,4.6,2.3,5.9,2.2,1.2,0,2.2-.6,2.6-1.6s.5-1.9,0-3-2.2-2.4-4.7-4-4.6-2.3-5.9-2.2c-1.2,0-2.2.6-2.6,1.6s-.6,1.8,0,2.9c.6,1.2,2.2,2.6,4.8,4.2h0Z" inkscape:connector-curvature="0"/>
        </g>
      </g>
      <g id="g1679">
        <g id="text1673">
          <path id="path1837" class="st15" d="M192.2,214.8l1.9-1.2,7.3,12.6c.2-.7.6-1.6,1.1-2.4s1-1.7,1.4-2.3l1.1,1.9c-.8,1.2-1.4,2.4-1.8,3.6s-.6,2.3-.5,3.1l-1.3.7-9.4-16.2h0v.2Z" inkscape:connector-curvature="0"/>
          <path id="path1840" class="st15" d="M189.6,222l-1.9,1.3c-.7-1-1.6-1.4-2.4-1.7-.8,0-1.7,0-2.5.4s-1.6,1.3-1.8,2.5c-.2,1.1,0,2.3.7,3.5s1.4,1.8,2.5,2.2c1,.2,2,0,3-.5s1.1-.8,1.4-1.4.5-1.2.6-1.8l2-.8,3.2,9.2-8,4.7-1.1-1.9,6.5-3.7-1.7-4.8c-.6,1.2-1.4,2.2-2.5,2.8s-2.9,1-4.4.6-2.8-1.4-3.6-2.9-1.2-3-1-4.6c.2-1.9,1.3-3.4,3.1-4.4s2.9-1.1,4.3-.8c1.4.2,2.5,1.1,3.5,2.4h0v-.3Z" inkscape:connector-curvature="0"/>
        </g>
        <g id="text1677">
          <path id="path1820" class="st15" d="M96.5,84l1.8-1.4c.8,1,1.7,1.6,2.5,1.8.8.1,1.7,0,2.4-.4s1.6-1.3,1.8-2.3,0-2-.4-3-1.2-1.4-2.2-1.7c-1-.2-1.9,0-2.8.4s-.8.6-1.3,1.1l-.8-1.9c0,0,.2,0,.4-.1.8-.5,1.4-1.2,1.9-1.9.5-.8.4-1.7,0-2.6s-1-1.2-1.8-1.3c-.7-.2-1.6,0-2.3.4-.7.5-1.3,1.1-1.6,1.8-.2.8,0,1.7.2,2.8l-2.2.8c-.5-1.4-.6-2.8,0-4.1.5-1.2,1.3-2.2,2.5-3s1.8-.8,2.8-.8,1.8.1,2.6.6c.7.5,1.3,1,1.8,1.7s.6,1.4.5,2.3c0,.8-.4,1.6-.8,2.3,1.1-.4,2-.2,3,0,1,.4,1.7,1.1,2.3,2.2s1,2.9.5,4.4c-.5,1.6-1.4,2.8-3,3.7-1.4.8-2.9,1.1-4.3.7-1.4-.4-2.6-1.1-3.5-2.4h.2Z" inkscape:connector-curvature="0"/>
          <path id="path1822" class="st15" d="M108.9,76.8l1.8-1.4c.8,1,1.7,1.6,2.5,1.8.8.1,1.7,0,2.4-.4s1.6-1.3,1.8-2.3,0-2-.4-3-1.2-1.4-2.2-1.7c-1-.2-1.9,0-2.8.4s-.8.6-1.3,1.1l-.8-1.9c0,0,.2,0,.4-.1.8-.5,1.4-1.2,1.9-1.9s.4-1.7,0-2.6-1-1.2-1.8-1.3c-.7-.2-1.6,0-2.3.4-.7.5-1.3,1.1-1.6,1.8-.2.8,0,1.7.2,2.8l-2.2.8c-.5-1.4-.6-2.8,0-4.1.5-1.2,1.3-2.2,2.5-3s1.8-.8,2.8-.8,1.8.1,2.6.6c.7.5,1.3,1,1.8,1.7s.6,1.4.5,2.3c0,.8-.4,1.6-.8,2.3,1.1-.4,2-.2,3,0,1,.4,1.7,1.1,2.3,2.2s1,2.9.5,4.4c-.5,1.6-1.4,2.8-3,3.7-1.4.8-2.9,1.1-4.3.7-1.4-.4-2.6-1.1-3.5-2.4h.2Z" inkscape:connector-curvature="0"/>
        </g>
      </g>
    </g>
    <g id="N_E_S_W">
      <g id="text1482">
        <path id="path1796" class="st15" d="M141.9,71.6v-19.8h2.6l10.4,15.6v-15.6h2.5v19.8h-2.6l-10.4-15.6v15.6h-2.5Z" inkscape:connector-curvature="0"/>
      </g>
      <g id="text1486">
        <path id="path1799" class="st15" d="M140.9,238.3l2.5-.2c0,1,.4,1.8.8,2.4s1.1,1.2,2,1.6,1.9.6,3,.6,1.9,0,2.6-.5c.7-.2,1.3-.7,1.7-1.2s.6-1.1.6-1.7-.2-1.2-.6-1.7-1-.8-1.8-1.2c-.5-.2-1.7-.5-3.5-1s-3.1-.8-3.8-1.2c-1-.5-1.7-1.1-2.2-1.8s-.7-1.6-.7-2.5.2-1.9.8-2.8,1.4-1.6,2.5-2c1.1-.5,2.3-.7,3.6-.7s2.8.2,3.8.7c1.1.5,2,1.2,2.6,2,.6,1,1,1.9,1,3.1l-2.5.2c0-1.2-.6-2.2-1.3-2.9-.7-.6-1.9-1-3.5-1s-2.8.2-3.5.8-1.1,1.3-1.1,2,.2,1.3.7,1.8,1.8,1,4,1.4,3.6.8,4.4,1.2c1.2.5,2,1.2,2.5,2,.6.8.8,1.8.8,2.8s-.4,2-1,3-1.4,1.7-2.6,2.2c-1.1.5-2.4.7-3.8.7s-3.2-.2-4.6-.8c-1.2-.5-2.2-1.3-2.9-2.4-.7-1.1-1.1-2.3-1.1-3.6h0l.2.5.4.2Z" inkscape:connector-curvature="0"/>
      </g>
      <g id="text1490">
        <path id="path1790" class="st15" d="M226.1,142h19.8v14.3h-2.3v-11.6h-6.1v10.9h-2.3v-10.9h-6.7v12.1h-2.3v-14.7h-.1Z" inkscape:connector-curvature="0"/>
      </g>
      <g id="text1494">
        <path id="path1793" class="st15" d="M72.7,142l-19.8-5.3v2.6l12.9,3c1.3.4,2.8.6,4.1.8-2.2.5-3.4.8-3.7.8l-13.3,3.7v3.1l10.1,2.9c2.5.7,4.8,1.2,7,1.6-1.2.2-2.6.6-4.3,1l-12.7,3.1v2.6l19.8-5.4v-2.5l-15.1-4.2c-1.3-.4-2-.6-2.3-.6,1-.2,1.7-.4,2.3-.6l15.1-4.2v-2.6h0v.2Z" inkscape:connector-curvature="0"/>
      </g>
    </g>
    <g id="inner_screws">
      <g id="g1716">
        <circle id="circle1712" class="st14" cx="128.7" cy="134.3" r="5.3"/>
        <rect id="rect1714" class="st9" x="124.4" y="133.1" width="8.3" height="2.2" transform="translate(-38.9 214.7) rotate(-71.9)"/>
      </g>
      <g id="g1722">
        <circle id="circle1718" class="st14" cx="167.7" cy="134.3" r="5.3"/>
        <rect id="rect1720" class="st9" x="166.5" y="130.1" width="2.2" height="8.3" transform="translate(-30.5 217.2) rotate(-61.4)"/>
      </g>
      <g id="g1728">
        <circle id="circle1724" class="st14" cx="148.6" cy="175.6" r="5.3"/>
        <rect id="rect1726" class="st9" x="147.2" y="171.3" width="2.2" height="8.3" transform="translate(-39.9 307.2) rotate(-84.8)"/>
      </g>
    </g>
  </g>
  <path id="vehicle" class="st0" d="M88,160l48.6-31.3c2.2-21.1,13.3-46.5,13.3-46.5,0,0,10.4,23.1,13.5,46.5l48.6,31.3c8.6,22-40.6,46.4-40.6,46.4,2.2.7,5,19.5-2.5,13.5l-15.6-9.2-3.6,4.8-3.2-4.6-15,8.5c-8.6,3.8-5-11.5-3-12.9,0,0-47.5-17.5-40.4-46.4h0Z" inkscape:connector-curvature="0" sodipodi:nodetypes="ccccccccccccccccccc"/>
  <circle id="reflection" class="st12" cx="147.8" cy="150" r="128.8"/>
<script type="text/javascript">
// // this is to make javascript work in the SVG, leave it alone

    function updateSVG(instrumentValue){
    // ========================================
    // STUDENT EDIT ZONE
    // This sections controls how the gauge displays
    // ========================================

    /**
     * Updates the compass display
     * - The compass rotates to show heading direction
     * - 0째 = North (N points up)
     * - 90째 = East (N points right)
     * - 180째 = South (N points down)
     * - 270째 = West (N points left)
     */

      // Normalize heading to 0-360 range
      const normalizedHeading = ((instrumentValue % 360) + 360) % 360;

      // Get the rotating compass group element
      const compassRotating = document.getElementById('compass-rotating');
      if (!compassRotating) {
        console.log('Cant find element to animate');
        return;
      }

      // Rotate the compass so N points toward current heading
      compassRotating.setAttribute('transform', `rotate(${normalizedHeading}, 150, 150)`);


    // ========================================
    // END STUDENT EDIT ZONE
    // ========================================

    }


    setInterval(() =&gt; { // do this repeatedly

    // Check localStorage for updates
      const thisSVGfilename = window.location.pathname;
    // this SVG expects a localStorage with the same name as its file
      const localStorageName =  thisSVGfilename.substring(thisSVGfilename.lastIndexOf('/') + 1, thisSVGfilename.lastIndexOf('.'));
      let instrumentValue = localStorage.getItem(localStorageName);



    if (instrumentValue !== null) {
      // Normalize heading to 0-360 range
      instrumentValue = ((instrumentValue % 360) + 360) % 360;

    } else {
    // no localStorage, so make up a number, so it spins around
    // Initialize static variables if they don't exist
    if (typeof window.testValue === 'undefined') {
      window.testValue = 0;
    }

    // Update the test value - continuously rotate
    window.testValue += 2; // increment by 2 degrees each time

    // Wrap around at 360
    if (window.testValue &gt;= 360) {
      window.testValue = 0;
    }

    instrumentValue = window.testValue;
    //console.log('no local storage \"'+localStorageName+'\", using test value:', instrumentValue);

     }

    updateSVG(instrumentValue)



    }, 50);  //end of setInterval code.  50 is 50 milliseconds or 20 times per second.

  // // this is to make javascript work in the SVG, leave it alone
  </script></svg>